<?xml version="1.0" encoding="utf-8"?>
<svg version="1.1" id="Outline_Icons" xmlns="http://www.w3.org/2000/svg" xmlns:xlink="http://www.w3.org/1999/xlink" x="0px"
	 y="0px" width="24px" height="24px" viewBox="0 0 24 24" enable-background="new 0 0 24 24" xml:space="preserve">
  <g>
  	<path d="M12,0C5.383,0,0,5.383,0,12s5.383,12,12,12s12-5.383,12-12S18.617,0,12,0z M12,23C5.935,23,1,18.065,1,12S5.935,1,12,1
  		s11,4.935,11,11S18.065,23,12,23z"/>
  	<path d="M17.724,11.553l-9-4.5C8.569,6.976,8.385,6.983,8.237,7.074C8.09,7.166,8,7.327,8,7.5v9c0,0.173,0.09,0.334,0.237,0.426
  		C8.317,16.975,8.409,17,8.5,17c0.077,0,0.153-0.018,0.224-0.053l9-4.5C17.893,12.362,18,12.189,18,12S17.893,11.638,17.724,11.553z
  		 M9,15.691V8.309L16.382,12L9,15.691z"/>
  </g>
</svg>
