<?xml version="1.0" encoding="utf-8"?>
<svg width="24px" height="24px" viewBox="0 0 24 24" version="1.1" xmlns="http://www.w3.org/2000/svg" xmlns:xlink="http://www.w3.org/1999/xlink">
  <g>
    <path d="M12,0 C5.383,0 0,5.383 0,12 C0,18.617 5.383,24 12,24 C18.617,24 24,18.617 24,12 C24,5.383 18.617,0 12,0 L12,0 Z M12,23 C5.935,23 1,18.065 1,12 C1,5.935 5.935,1 12,1 C18.065,1 23,5.935 23,12 C23,18.065 18.065,23 12,23 L12,23 Z"/>
    <path d="M8,8.40771961 C8,8.18254229 8.18212223,8 8.40771961,8 L15.5922804,8 C15.8174577,8 16,8.18212223 16,8.40771961 L16,15.5922804 C16,15.8174577 15.8178778,16 15.5922804,16 L8.40771961,16 C8.18254229,16 8,15.8178778 8,15.5922804 L8,8.40771961 L8,8.40771961 Z"/>
  </g>
</svg>
