<?xml version="1.0" encoding="UTF-8" standalone="no"?>
<svg width="15px" height="15px" viewBox="0 0 15 15" version="1.1" xmlns="http://www.w3.org/2000/svg" xmlns:xlink="http://www.w3.org/1999/xlink">
    <path d="M7.253 1.73c.47-.47 1.11-.73 1.77-.73h2.46c1.37 0 2.5 1.13 2.5 2.5v2.47c0 .66-.27 1.3-.73 1.77l-6.06 6.06a.996.996 0 0 1-1.41 0l-4.59-4.59a.996.996 0 0 1 0-1.41l6.06-6.07zm5.35 5.36c.31-.3.47-.7.47-1.13V3.5c0-.88-.72-1.59-1.59-1.59h-2.47c-.42 0-.83.16-1.13.47l-6.14 6.13 4.73 4.73 6.13-6.15zM11.973 3h-2v2h2.01V3h-.01z"/>
</svg>
